<svg id="Layer_1" data-name="Layer 1" xmlns="http://www.w3.org/2000/svg" viewBox="0 0 486.1 112.3"><defs><style>.cls-1{opacity:0.3;}.cls-2{fill:#fff;}.cls-3{fill:none;}</style></defs><title>dsa_logo</title><g id="Logo_w_shield_process_maroon" data-name="Logo w/ shield process maroon"><g class="cls-1"><path d="M42.1,325.9V366h6.5V327.8h7.8v38.5H83.3V327.8H91v38.5h7.1V325.8h-56v0.1Zm19.7,39.5H57.6V329.1h4.2v36.3Zm3.3-2.6H62.8V330.7h2.3v32.1Zm1.9-1.3H66V332h1v29.5Zm3.9-.6H68.6V359h2.3v1.9Zm2.6,0.6h-1V332h1v29.5Zm3.2,1.3H74.4V330.7h2.3v32.1Zm5.2,2.6H77.7V329.1h4.2v36.3Z" transform="translate(-38.9 -321.7)"/><path d="M106.2,329.8c3.9,0,4.5,1.6,7.4,7.1,3.6,6.8,13.3,33.4,17.5,46.3l8.4-1a439.36,439.36,0,0,1,20.4-55.4H141.1l-1,3.2c6.8,0,9.4,1.6,9.4,5.8,0,4.9-11,33-13,40.2H136c-7.4-18.5-13.9-37.6-13.9-40.8s1.9-5.2,9.1-5.2l1-3.2H107.3l-1.1,3h0Z" transform="translate(-38.9 -321.7)"/><path d="M173.9,381.9l1-3.2c-5.8-.3-6.5-1.3-6.5-7.4V346.7c0-1.9.3-3.9,0.3-5.2a40.43,40.43,0,0,1-12,2.9l-1,3.2c4.5,0.3,6.5,1.3,6.5,5.2v21c0,3.6-1.3,4.9-5.2,5.2l-1,3.2h17.8v-0.3h0.1Zm-5.2-50.2c0-2.3-.3-2.9-1.6-2.9s-5.8,1-5.8,2.6c0,2.3.3,2.9,0.3,4.2a6.89,6.89,0,0,1-.3,2.6c7.1-2.6,7.4-2.6,7.4-6.5h0Z" transform="translate(-38.9 -321.7)"/><path d="M196.2,381.9l1-3.2c-7.8,0-8.4-1.6-8.4-9.7,0-10.7,1-15.2,3.6-18.1,1.6-1.6,3.6-1.9,8.4-2.3l2.6-7.1a15.14,15.14,0,0,0-15.2,11.7h-0.3V341.5a63.85,63.85,0,0,1-11,2.9l-1,3.2c5.5,0,6.5,1,6.5,4.9v21.7c0,3.2-1,4.2-5.2,4.2l-1,3.2h20.1v0.3h-0.1Z" transform="translate(-38.9 -321.7)"/><path d="M230.9,388.1c0,5.2-7.1,7.8-15.9,7.8-6.8,0-10-3.9-10-7.1a11.86,11.86,0,0,1,2.3-6.8c1.6,0.6,5.8.6,15.2,0.6,5.5-.4,8.4,2.2,8.4,5.5h0Zm-23.7-31.8c0-9.4,1.3-11,6.8-11,8.1,0,9.7,2.3,9.7,10.4s-1.3,10.7-6.8,10.7c-6.1,0-9.7-2.9-9.7-10.1h0Zm28.9-14.2c-4.5.3-7.1,0.3-10.7,1.3-1.9-1.6-5.5-1.9-9.1-1.9-9.7,0-14.9,6.8-14.9,17.2,0,5.5,1.9,9.1,6.8,11.7-4.5,2.9-6.5,4.5-6.5,7.1a4.07,4.07,0,0,0,2.6,3.6,11.35,11.35,0,0,0-5.5,10.4c0,7.8,8.1,10.7,14.6,10.7,9.4,0,22-4.9,22-16.2,0-5.8-3.9-8.7-10.7-8.7-3.6,0-7.4.3-10.4,0.3-3.6,0-5.5-.6-5.5-2.3,0-1.9,1.9-3.9,3.2-3.9,13,0,18.1-8.7,18.1-17.2a12.39,12.39,0,0,0-2.3-7.1l6.2,0.3,2.1-5.3h0Z" transform="translate(-38.9 -321.7)"/><path d="M254.5,381.9l1-3.2c-5.8-.3-6.5-1.3-6.5-7.4V346.7c0-1.9.3-3.9,0.3-5.2a40.43,40.43,0,0,1-12,2.9l-1,3.2c4.5,0.3,6.5,1.3,6.5,5.2v21c0,3.6-1.3,4.9-5.2,5.2l-1,3.2h17.8v-0.3h0.1Zm-5.2-50.2c0-2.3-.3-2.9-1.6-2.9s-5.8,1-5.8,2.6c0,2.3.3,2.9,0.3,4.2a6.89,6.89,0,0,1-.3,2.6c7.4-2.6,7.4-2.6,7.4-6.5h0Z" transform="translate(-38.9 -321.7)"/><path d="M288.8,368.3c0,9.4-1.3,9.4-6.2,10.4l-1,3.2h18.5l1-3.2c-4.5-.3-5.8-1.9-5.8-5.5V351.8c0-5.8-4.2-10.7-11.3-10.7-7.8,0-11,3.9-14.9,9.1h-0.3v-9.1a48,48,0,0,1-11.3,3.2l-1,3.2c5.5,0.3,6.2.6,6.2,9.7V369c0,8.1-.6,8.4-4.9,9.4l-1,3.2h19.4l1-3.2c-6.5-.6-8.1-1.6-8.1-9.4v-4.2c0-13.6,3.6-18.1,10.4-18.1,5.8,0,8.7,2.6,8.7,10.4v11.3h0.6v-0.1Z" transform="translate(-38.9 -321.7)"/><path d="M320.6,381.9l1-3.2c-5.8-.3-6.5-1.3-6.5-7.4V346.7c0-1.9.3-3.9,0.3-5.2a40.43,40.43,0,0,1-12,2.9l-1,3.2c4.5,0.3,6.5,1.3,6.5,5.2v21c0,3.6-1.3,4.9-5.2,5.2l-1,3.2h17.8v-0.3h0.1Zm-5.2-50.2c0-2.3-.3-2.9-1.6-2.9s-5.8,1-5.8,2.6c0,2.3.3,2.9,0.3,4.2a6.89,6.89,0,0,1-.3,2.6c7.4-2.6,7.4-2.6,7.4-6.5h0Z" transform="translate(-38.9 -321.7)"/><path d="M357.2,378.4c-4.5-.3-5.8-1.6-5.8-4.2v-23c0-7.1-3.2-10.4-12.6-10.4a36.68,36.68,0,0,0-12,1.6l-1.9,5.5a47.75,47.75,0,0,1,12-1.9c5.8,0,8.4,1.9,8.4,5.2v4.2c-7.8,4.9-23,7.1-23,17.5,0,6.2,5.2,9.4,10.7,9.4,6.2,0,9.4-1.9,12.6-6.8h0.3v5.8h10.4l0.9-2.9h0Zm-12.3-10.1a9.26,9.26,0,0,1-9.7,9.4,5.9,5.9,0,0,1-5.8-6.2c0-5.8,7.1-8.1,15.9-12v8.7h-0.4v0.1Z" transform="translate(-38.9 -321.7)"/><path d="M365.6,381.9h26.6l1-3.2c-9.1-.3-10.4-2.3-10.4-15.2V342.1c0-5.8.3-9.1,0.3-12,12.6,0,14.6,1.3,15.5,11.3l3.9-1.3V326.2H356.2v15.5l3.9-1.3c1-8.7,2.3-10,15.5-10,0.3,2.9.3,6.5,0.3,12v21.4c0,12.6-1.3,14.9-9.4,15.2l-0.9,2.9h0Z" transform="translate(-38.9 -321.7)"/><path d="M429,375.8c-3.6.6-7.4,1.6-11,1.6-10.4,0-14.9-6.5-14.9-17.2l27.5-.6c0-13-6.8-18.5-15.9-18.5-10.4,0-18.8,8.4-18.8,21,0,13,8.4,20.7,19.8,20.7a47.1,47.1,0,0,0,11.7-1.6l1.6-5.4h0Zm-25.9-19.5c1.6-9.1,4.2-11.3,10-11.3s9.4,4.2,9.4,7.8c0,2.3-1,2.9-5.2,2.9l-14.2.6h0Z" transform="translate(-38.9 -321.7)"/><path d="M461.4,342.4a21.9,21.9,0,0,0-7.1-1c-12,0-21,7.8-21,21.4,0,13.3,7.4,20.4,20.7,20.4a43.51,43.51,0,0,0,8.4-1l1.6-5.5a40.68,40.68,0,0,1-9.1,1.3c-9.4,0-14.6-5.2-14.6-16.8,0-5.8,1.9-12,4.2-13.6a13.08,13.08,0,0,1,5.8-1,34.63,34.63,0,0,1,12,2.3l-0.9-6.5h0Z" transform="translate(-38.9 -321.7)"/><path d="M470.2,341.8v27.8c0,7.8-.6,8.1-5.2,9.4l-1,3.2h19.4l1-3.2c-6.2-.6-7.4-1.3-7.4-9.1V366c0-13.3,3.2-17.8,10.4-17.8,5.8,0,8.4,2.6,8.4,10v11c0,9.1-1.3,9.1-6.5,10l-1,3.2h19.1l1-3.2c-5.2-.3-6.2-1.9-6.2-5.2V353.3c0-5.8-4.2-10.4-11-10.4-7.4,0-10.7,3.6-13.9,8.1H477V338c0-8.4.3-13.6,0.3-14.9-2.9,1.3-9.1,2.9-13.6,3.9l-1,3.2c6.2,0.3,7.8.6,7.8,8.7v2.6h-0.3v0.3Z" transform="translate(-38.9 -321.7)"/><path d="M42.1,368.3v11s-0.3,3.6,1.6,5.2,26.2,12,26.2,12,24.3-10.4,26.2-12.3c1.6-1.6,1.6-4.9,1.6-4.9v-11H42.1Zm10,14.3H49.2v-8.1h0l-1.9,1L47,373.2l2.9-1.3h2.3v10.7H52.1Zm11,0.3c-2.9,0-4.2-1.6-4.2-2.9a2.88,2.88,0,0,1,1.6-2.6h0a2.68,2.68,0,0,1-1.6-2.3c0-1.9,1.6-2.9,3.9-2.9h0c2.6,0,3.6,1.6,3.6,2.6a3.21,3.21,0,0,1-1.3,2.3h0a2.73,2.73,0,0,1,1.9,2.6C67.4,381.3,65.7,382.9,63.1,382.9ZM80,373.8l-4.2,8.7H72.6l4.2-8.1H72.3v-2.3H80v1.7Zm12.9,8.8H85.1V381l1.6-1.3c2.3-1.9,3.2-2.9,3.2-3.9a1.48,1.48,0,0,0-1.6-1.3,2.9,2.9,0,0,0-2.3,1l-0.6-1.9a6.16,6.16,0,0,1,3.6-1c2.6,0,3.9,1.3,3.9,3.2,0,1.6-1.3,2.9-2.6,4.2l-1,.6h3.6v2ZM63.1,378a1.38,1.38,0,0,0-1,1.3,1.4,1.4,0,0,0,1.3,1.3h0a1.4,1.4,0,0,0,1.3-1.3A8,8,0,0,0,63.1,378Zm0.4-1.9a1.44,1.44,0,0,0,1-1.3,1.16,1.16,0,0,0-1.3-1.3h0a1.43,1.43,0,0,0-1.3,1C61.8,374.8,62.8,375.8,63.5,376.1Z" transform="translate(-38.9 -321.7)"/><path d="M515.8,370.3a10,10,0,0,1,2.9.6,7.22,7.22,0,0,1,2.3,2.3,5.08,5.08,0,0,1,.6,2.9,10,10,0,0,1-.6,2.9,7.22,7.22,0,0,1-2.3,2.3,5.08,5.08,0,0,1-2.9.6,10,10,0,0,1-2.9-.6,7.22,7.22,0,0,1-2.3-2.3,5.08,5.08,0,0,1-.6-2.9,10,10,0,0,1,.6-2.9,7.22,7.22,0,0,1,2.3-2.3A5.24,5.24,0,0,1,515.8,370.3Zm0,0.9a5.19,5.19,0,0,0-2.3.6,4.1,4.1,0,0,0-1.6,1.6,6,6,0,0,0-.6,2.3,5.19,5.19,0,0,0,.6,2.3,4.1,4.1,0,0,0,1.6,1.6,6,6,0,0,0,2.3.6,5.19,5.19,0,0,0,2.3-.6,4.1,4.1,0,0,0,1.6-1.6,6,6,0,0,0,.6-2.3,5.19,5.19,0,0,0-.6-2.3,4.1,4.1,0,0,0-1.6-1.6A9.76,9.76,0,0,0,515.8,371.2Zm-2.6,8.1v-6.2h3.2a1.43,1.43,0,0,1,1,.3,1.13,1.13,0,0,1,.6.6c0,0.3.3,0.6,0.3,1a2.08,2.08,0,0,1-.3,1.3,1.61,1.61,0,0,1-1.3.6c0.3,0,.3,0,0.3.3l0.3,0.3a1,1,0,0,1,.3.6l0.6,1.3h-1.6l-0.6-1a3.45,3.45,0,0,0-1-1.3,1.31,1.31,0,0,0-1-.3h-0.3v2.6h-0.6v-0.1h0.1Zm1.3-3.5h1.9c0.3,0,.3,0,0.3-0.3v-0.6l-0.3-.3h-1.9v1.2Z" transform="translate(-38.9 -321.7)"/></g><g class="cls-1"><path d="M253.5,421.1l3.6-.3a10.3,10.3,0,0,0,1.3,3.6,6.91,6.91,0,0,0,2.9,2.3,9.63,9.63,0,0,0,4.2,1,12.89,12.89,0,0,0,3.6-.6,4.52,4.52,0,0,0,2.3-1.6,3.22,3.22,0,0,0,.6-2.3,5.19,5.19,0,0,0-.6-2.3,5.05,5.05,0,0,0-2.6-1.6c-0.6-.3-2.3-0.6-4.9-1.3s-4.2-1.3-5.5-1.6a6.74,6.74,0,0,1-2.9-2.6,7.19,7.19,0,0,1-1-3.6,6.1,6.1,0,0,1,1.3-3.9,6,6,0,0,1,3.6-2.9,14.8,14.8,0,0,1,10.7,0,6.62,6.62,0,0,1,3.6,2.9,6.69,6.69,0,0,1,1.3,4.5l-3.6.3a6.84,6.84,0,0,0-1.9-3.9,8.23,8.23,0,0,0-4.9-1.3c-2.3,0-3.9.3-4.9,1.3a4.29,4.29,0,0,0-1.6,2.9,3.54,3.54,0,0,0,1,2.6c0.7,0.7,2.6,1.3,5.5,1.9s5.2,1.3,6.2,1.6a6.62,6.62,0,0,1,3.6,2.9,10,10,0,0,1,1.3,3.9,6.37,6.37,0,0,1-1.3,4.2,7.42,7.42,0,0,1-3.6,2.9,15,15,0,0,1-5.5,1,18.5,18.5,0,0,1-6.5-1,7.91,7.91,0,0,1-3.9-3.2C254.2,424.7,253.5,423,253.5,421.1Z" transform="translate(-38.9 -321.7)"/><path d="M287.5,426.9l0.6,2.9a8.63,8.63,0,0,1-2.6.3,6.63,6.63,0,0,1-2.9-.6,2.28,2.28,0,0,1-1.3-1.6c-0.3-.6-0.3-1.9-0.3-3.9V412.3h-2.6v-2.6H281v-4.9l3.2-1.9V410h3.6v2.6h-3.6v11.7a2.94,2.94,0,0,0,.3,1.9,0.65,0.65,0,0,0,.6.6,1.58,1.58,0,0,0,1.3.3A1.24,1.24,0,0,0,287.5,426.9Z" transform="translate(-38.9 -321.7)"/><path d="M304.1,430.2v-2.9a7.46,7.46,0,0,1-6.5,3.6,9.6,9.6,0,0,1-3.2-.6,5,5,0,0,1-2.3-1.6,3.8,3.8,0,0,1-1-2.6c0-.6-0.3-1.6-0.3-3.2V410.3h3.6v11.3a10.35,10.35,0,0,0,.3,3.6,4.78,4.78,0,0,0,1.3,2.3,3.63,3.63,0,0,0,2.6.6,10,10,0,0,0,2.9-.6,3.88,3.88,0,0,0,1.9-2.3,13.31,13.31,0,0,0,.6-3.9V410.6h3.6v20.1H304v-0.5h0.1Z" transform="translate(-38.9 -321.7)"/><path d="M324.8,430.2v-2.6a6.4,6.4,0,0,1-5.5,2.9,7.2,7.2,0,0,1-4.5-1.3,15.61,15.61,0,0,1-3.2-3.6,16.29,16.29,0,0,1-1-5.5,14.16,14.16,0,0,1,1-5.5,8.73,8.73,0,0,1,2.9-3.9,7.2,7.2,0,0,1,4.5-1.3,9.6,9.6,0,0,1,3.2.6,15.51,15.51,0,0,1,2.3,1.9v-10h3.2v27.8h-2.9v0.5Zm-10.7-10.1a9.33,9.33,0,0,0,1.6,5.8,5,5,0,0,0,7.8,0,9,9,0,0,0,1.6-5.5c0-2.9-.6-4.9-1.6-6.2a5,5,0,0,0-7.8,0A9.87,9.87,0,0,0,314.1,420.1Z" transform="translate(-38.9 -321.7)"/><path d="M346.5,423.7l3.6,0.3a10,10,0,0,1-3.2,4.9,8.8,8.8,0,0,1-5.8,1.6,10.65,10.65,0,0,1-7.1-2.6,11.24,11.24,0,0,1-2.6-7.8c0-3.2,1-6.2,2.6-7.8a8.48,8.48,0,0,1,6.8-2.9,9.14,9.14,0,0,1,6.5,2.6,11.8,11.8,0,0,1,2.6,7.8v1H335a6.8,6.8,0,0,0,1.9,5.2,5,5,0,0,0,4.2,1.6,4.9,4.9,0,0,0,3.2-1A8.51,8.51,0,0,0,346.5,423.7Zm-11.4-5.5h11.3a6.73,6.73,0,0,0-1.3-3.9,5.22,5.22,0,0,0-4.2-1.9A5.35,5.35,0,0,0,337,414,7.84,7.84,0,0,0,335.1,418.2Z" transform="translate(-38.9 -321.7)"/><path d="M353.6,430.2V410.1h2.9V413a7.13,7.13,0,0,1,6.5-3.2,9.6,9.6,0,0,1,3.2.6,7.33,7.33,0,0,1,2.3,1.6,3.39,3.39,0,0,1,1,2.6c0,0.6.3,1.6,0.3,3.2v12.3h-3.6V417.8a9.3,9.3,0,0,0-.3-3.2,2.93,2.93,0,0,0-1.3-1.6,6,6,0,0,0-2.3-.6,6.1,6.1,0,0,0-3.9,1.3c-1,1-1.6,2.6-1.6,5.2v11h-3.2v0.3Z" transform="translate(-38.9 -321.7)"/><path d="M382.4,426.9l0.6,2.9a8.63,8.63,0,0,1-2.6.3,6.63,6.63,0,0,1-2.9-.6,2.28,2.28,0,0,1-1.3-1.6c-0.3-.6-0.3-1.9-0.3-3.9V412.3h-2.6v-2.6h2.6v-4.9l3.2-1.9V410h3.6v2.6h-3.6v11.7a2.94,2.94,0,0,0,.3,1.9,0.65,0.65,0,0,0,.6.6,1.58,1.58,0,0,0,1.3.3A1.2,1.2,0,0,0,382.4,426.9Z" transform="translate(-38.9 -321.7)"/><path d="M393.4,430.2l10.7-27.8H408l11.3,27.8h-4.2l-3.2-8.4H400.2l-2.9,8.4h-3.9Zm8.1-11.4h9.4L408,411a27.52,27.52,0,0,1-1.9-5.8,26.36,26.36,0,0,1-1.6,5.2Z" transform="translate(-38.9 -321.7)"/><path d="M422.9,430.2V412.7H420v-2.6h2.9v-2.3a7.5,7.5,0,0,1,.3-2.9,6.34,6.34,0,0,1,1.6-2.3,6.16,6.16,0,0,1,3.6-1,12.7,12.7,0,0,1,3.2.3l-0.6,2.9c-0.6,0-1.3-.3-1.9-0.3a5.19,5.19,0,0,0-2.3.6,4.4,4.4,0,0,0-.6,2.6v1.9h3.9v2.6h-3.9v17.5H423v0.5h-0.1Z" transform="translate(-38.9 -321.7)"/><path d="M435.2,430.2V412.7h-2.9v-2.6h2.9v-2.3a7.5,7.5,0,0,1,.3-2.9,6.34,6.34,0,0,1,1.6-2.3,6.16,6.16,0,0,1,3.6-1,12.7,12.7,0,0,1,3.2.3l-0.6,2.9c-0.6,0-1.3-.3-1.9-0.3a5.19,5.19,0,0,0-2.3.6,4.4,4.4,0,0,0-.6,2.6v1.9h3.9v2.6h-3.9v17.5h-3.2v0.5h-0.1Z" transform="translate(-38.9 -321.7)"/><path d="M458.5,427.6a17.56,17.56,0,0,1-3.6,2.3,15.2,15.2,0,0,1-3.9.6,8.07,8.07,0,0,1-5.2-1.6,5.22,5.22,0,0,1-1.9-4.2,6.64,6.64,0,0,1,.6-2.6,3.12,3.12,0,0,1,1.6-1.9,3.8,3.8,0,0,1,2.6-1,20,20,0,0,1,2.9-.6c2.9-.3,4.9-0.6,6.2-1.3v-1a3.66,3.66,0,0,0-1-2.9,7.53,7.53,0,0,0-3.9-1.3,5.17,5.17,0,0,0-3.6,1,6.13,6.13,0,0,0-1.6,2.9l-3.2-.3a6.94,6.94,0,0,1,1.6-3.6,4.31,4.31,0,0,1,2.9-1.9,20.41,20.41,0,0,1,4.5-.6,15.64,15.64,0,0,1,4.2.6,4.52,4.52,0,0,1,2.3,1.6,3.08,3.08,0,0,1,1,2.3c0,0.6.3,1.6,0.3,3.2v4.5c0,3.2,0,5.2.3,6.2a2.9,2.9,0,0,0,1,2.3H459A11.74,11.74,0,0,1,458.5,427.6Zm-0.3-7.5a20.2,20.2,0,0,1-5.5,1.3,20,20,0,0,0-2.9.6,3.45,3.45,0,0,0-1.3,1,3,3,0,0,0-.3,1.6,2.9,2.9,0,0,0,1,2.3,4,4,0,0,0,2.9,1,6.3,6.3,0,0,0,3.6-1,7.22,7.22,0,0,0,2.3-2.3,9,9,0,0,0,.6-3.6v-1h-0.4v0.1Z" transform="translate(-38.9 -321.7)"/><path d="M466,406.2v-3.9h3.6v3.9H466Zm0,24V410.1h3.6v20.1H466Z" transform="translate(-38.9 -321.7)"/><path d="M474.1,430.2V410.1H477V413a8.91,8.91,0,0,1,2.3-2.9,4.84,4.84,0,0,1,2.3-.6,7,7,0,0,1,3.6,1l-1.3,3.2a4.16,4.16,0,0,0-2.6-.6,4.67,4.67,0,0,0-1.9.6,3.09,3.09,0,0,0-1.3,1.9,17.56,17.56,0,0,0-.6,3.9v10.7h-3.4Z" transform="translate(-38.9 -321.7)"/><path d="M486.4,424l3.2-.6a5.45,5.45,0,0,0,1.6,3.2,6.16,6.16,0,0,0,3.6,1,5.51,5.51,0,0,0,3.6-1,3.37,3.37,0,0,0,1.3-2.3,2.57,2.57,0,0,0-1-1.9,21.52,21.52,0,0,0-3.6-1.3,51,51,0,0,1-5.2-1.6,4.65,4.65,0,0,1-2.3-1.9,4.16,4.16,0,0,1-.6-2.6,8.17,8.17,0,0,1,.6-2.6,9,9,0,0,1,1.6-1.9c0.6-.3,1.3-0.6,2.3-1a7.2,7.2,0,0,1,2.9-.3,17.71,17.71,0,0,1,4.2.6,4.28,4.28,0,0,1,2.6,1.9,7.35,7.35,0,0,1,1.3,3.2l-3.2.3a3.85,3.85,0,0,0-1.3-2.6,4.1,4.1,0,0,0-3.2-1,7.14,7.14,0,0,0-3.2.6,2.42,2.42,0,0,0-1,1.9,2.08,2.08,0,0,0,.3,1.3,5.32,5.32,0,0,0,1.3,1,11.56,11.56,0,0,1,2.9,1c2.3,0.6,4.2,1.3,5.2,1.6a4.65,4.65,0,0,1,2.3,1.9,4,4,0,0,1,1,2.9,4.9,4.9,0,0,1-1,3.2,5.21,5.21,0,0,1-2.9,2.3,9.63,9.63,0,0,1-4.2,1,9.33,9.33,0,0,1-5.8-1.6C487.7,427.9,486.7,426.3,486.4,424Z" transform="translate(-38.9 -321.7)"/></g><g class="cls-1"><path d="M109.8,430.2V409.5h7.1a11.33,11.33,0,0,1,3.6.3c1.3,0.3,2.3.6,2.9,1.6A15.77,15.77,0,0,1,126,415a11,11,0,0,1,1,4.9,17,17,0,0,1-.6,4.2,11.55,11.55,0,0,1-1.3,2.9l-1.9,1.9c-0.6.3-1.6,0.6-2.6,1a10.56,10.56,0,0,1-3.2.3h-7.6Zm2.9-2.6h4.5a9.3,9.3,0,0,0,3.2-.3,17.38,17.38,0,0,0,1.9-1,6.75,6.75,0,0,0,1.6-2.6,15.2,15.2,0,0,0,.6-3.9,10.68,10.68,0,0,0-1-5.2,4.74,4.74,0,0,0-2.6-2.3,10.67,10.67,0,0,0-3.6-.3H113v15.5h-0.3v0.1Z" transform="translate(-38.9 -321.7)"/><path d="M130.5,412v-2.9h2.6V412h-2.6Zm0,18.2V415h2.6v15.2h-2.6Z" transform="translate(-38.9 -321.7)"/><path d="M141.2,430.2L135.4,415H138l3.2,9.1c0.3,1,.6,1.9,1,2.9a22.82,22.82,0,0,0,1-2.9l3.2-9.1H149l-5.8,15.2h-2Z" transform="translate(-38.9 -321.7)"/><path d="M151.5,412v-2.9h2.6V412h-2.6Zm0,18.2V415h2.6v15.2h-2.6Z" transform="translate(-38.9 -321.7)"/><path d="M157,425.6l2.6-.3a2.74,2.74,0,0,0,1.3,2.3,3.8,3.8,0,0,0,2.6,1,5.52,5.52,0,0,0,2.6-.6,1.9,1.9,0,0,0,1-1.6,1.78,1.78,0,0,0-.6-1.3,9.13,9.13,0,0,0-2.6-1,14.28,14.28,0,0,1-3.9-1.3,7.47,7.47,0,0,1-1.6-1.3,4.67,4.67,0,0,1-.6-1.9,4.22,4.22,0,0,1,.3-1.9,2.37,2.37,0,0,1,1.3-1.3,2.58,2.58,0,0,1,1.6-.6,5.13,5.13,0,0,1,2.3-.3,9.6,9.6,0,0,1,3.2.6,2.54,2.54,0,0,1,1.9,1.3c0.3,0.6.6,1.3,1,2.3l-2.6.3a2.57,2.57,0,0,0-1-1.9,4.84,4.84,0,0,0-2.3-.6,5.52,5.52,0,0,0-2.6.6,1.34,1.34,0,0,0-.6,1.3,1.43,1.43,0,0,0,.3,1,1.52,1.52,0,0,0,1,.6c0.4,0,1,.3,2.3.6a19.37,19.37,0,0,1,3.9,1.3,2.93,2.93,0,0,1,1.6,1.3,4.71,4.71,0,0,1,0,4.6,5.59,5.59,0,0,1-2.3,1.6,10.13,10.13,0,0,1-3.2.6c-1.9,0-3.6-.3-4.5-1.3A7.26,7.26,0,0,1,157,425.6Z" transform="translate(-38.9 -321.7)"/><path d="M172.6,412v-2.9h2.6V412h-2.6Zm0,18.2V415h2.6v15.2h-2.6Z" transform="translate(-38.9 -321.7)"/><path d="M178.1,422.4c0-2.9.6-4.9,2.3-6.2a7.78,7.78,0,0,1,4.9-1.6,7.26,7.26,0,0,1,5.2,1.9,7.52,7.52,0,0,1,1.9,5.5,7.9,7.9,0,0,1-1,4.5,6.49,6.49,0,0,1-2.6,2.6,7.19,7.19,0,0,1-3.6,1,6.8,6.8,0,0,1-5.2-1.9C178.7,426.9,178.1,425,178.1,422.4Zm2.9,0c0,1.9.3,3.2,1.3,4.2a4,4,0,0,0,3.2,1.3,3.89,3.89,0,0,0,3.2-1.3c1-1,1.3-2.6,1.3-4.5s-0.3-3.2-1.3-4.2a4,4,0,0,0-3.2-1.3,3.89,3.89,0,0,0-3.2,1.3A6.52,6.52,0,0,0,181,422.4Z" transform="translate(-38.9 -321.7)"/><path d="M195.3,430.2V415h2.3v2.3a5.44,5.44,0,0,1,4.9-2.6,8.17,8.17,0,0,1,2.6.6,2.93,2.93,0,0,1,1.6,1.3,4.67,4.67,0,0,1,.6,1.9v12h-2.6v-9.1a4.7,4.7,0,0,0-.3-2.3,3.45,3.45,0,0,0-1-1.3,3.63,3.63,0,0,0-1.9-.3,4.85,4.85,0,0,0-2.9,1,5.53,5.53,0,0,0-1.3,3.9v8.1h-1.9v-0.3h-0.1Z" transform="translate(-38.9 -321.7)"/><path d="M218.9,422.4c0-2.9.6-4.9,2.3-6.2a7.78,7.78,0,0,1,4.9-1.6,7.43,7.43,0,0,1,5.2,1.9,7.52,7.52,0,0,1,1.9,5.5,7.9,7.9,0,0,1-1,4.5,6.49,6.49,0,0,1-2.6,2.6,7.19,7.19,0,0,1-3.6,1,6.8,6.8,0,0,1-5.2-1.9C219.5,426.9,218.9,425,218.9,422.4Zm2.6,0c0,1.9.3,3.2,1.3,4.2a4,4,0,0,0,3.2,1.3,3.89,3.89,0,0,0,3.2-1.3,6.71,6.71,0,0,0,1.3-4.5c0-1.9-.3-3.2-1.3-4.2a4,4,0,0,0-3.2-1.3,3.89,3.89,0,0,0-3.2,1.3A6.52,6.52,0,0,0,221.5,422.4Z" transform="translate(-38.9 -321.7)"/><path d="M236.4,430.2V416.9h-2.3V415h2.3v-1.6a5.36,5.36,0,0,1,.3-2.3,2.93,2.93,0,0,1,1.3-1.6,6.23,6.23,0,0,1,2.6-.6,6.34,6.34,0,0,1,2.3.3v2.3h-1.6a2.58,2.58,0,0,0-1.6.6,3.1,3.1,0,0,0-.3,1.9v1.3h2.9v1.9h-2.9v13.3h-2.9v-0.3h-0.1Z" transform="translate(-38.9 -321.7)"/></g></g><g id="Layer_2" data-name="Layer 2"><path class="cls-2" d="M45,324.9v40.2h6.5V326.6h7.8v38.5H86.2V326.6H94v38.5h7.1V324.9H45Zm19.8,39.2H60.6V327.8h4.2v36.3Zm3.5-2.6H66V329.4h2.3v32.1Zm2-1h-1V331h1v29.5Zm3.5-.9H71.5v-1.9h2.3v1.9Zm2.6,0.6h-1V330.7h1v29.5Zm3.3,1.3H77.4V329.4h2.3v32.1Zm5.1,2.6H81V327.8h4.2v36.3H84.8Z" transform="translate(-38.9 -321.7)"/><path class="cls-2" d="M109.4,328.5c3.9,0,4.5,1.6,7.4,7.1,3.6,6.8,13.3,33.4,17.5,46.3l8.1-1.3a439.36,439.36,0,0,1,20.4-55.4H144l-1,3.2c6.8,0,9.4,1.6,9.4,5.8,0,4.9-11,33-13,40.2h-0.3c-7.4-18.5-13.9-37.6-13.9-40.8s1.9-5.2,9.1-5.2l1-3.2H110.4l-1,3.3h0Z" transform="translate(-38.9 -321.7)"/><path class="cls-2" d="M176.8,380.6l1-3.2c-5.8-.3-6.5-1.3-6.5-7.4V345c0-1.9.3-3.9,0.3-5.2a40.43,40.43,0,0,1-12,2.9l-1,3.2c4.5,0.3,6.5,1.3,6.5,5.2v21c0,3.6-1.3,4.9-5.2,5.2l-1.3,3.2h18.2v0.1Zm-5.2-50.2c0-2.3-.3-2.9-1.6-2.9s-5.8,1-5.8,2.6c0,2.3.3,2.9,0.3,4.2a6.89,6.89,0,0,1-.3,2.6c7.4-2.6,7.4-2.6,7.4-6.5h0Z" transform="translate(-38.9 -321.7)"/><path class="cls-2" d="M199.1,380.6l1-3.2c-7.8,0-8.4-1.6-8.4-9.7,0-10.7,1-15.2,3.6-18.1,1.6-1.6,3.6-1.9,8.4-2.3l2.6-7.1a15.14,15.14,0,0,0-15.2,11.7h0V340.2a63.85,63.85,0,0,1-11,2.9l-1,3.2c5.5,0,6.5,1,6.5,4.9v22c0,3.2-1,4.2-5.2,4.2l-1,3.2h19.7Z" transform="translate(-38.9 -321.7)"/><path class="cls-2" d="M233.8,386.8c0,5.2-7.1,7.8-15.9,7.8-6.8,0-10-3.9-10-7.1a11.86,11.86,0,0,1,2.3-6.8c1.6,0.6,5.8.6,15.2,0.6,5.5-.4,8.4,2.2,8.4,5.5h0ZM210.5,355c0-9.4,1.3-11,6.8-11,8.1,0,9.7,2.3,9.7,10.4s-1.3,10.7-6.8,10.7c-6.2,0-9.7-2.6-9.7-10.1h0ZM239,340.8c-4.5.3-7.1,0.3-10.7,1.3-1.9-1.6-5.5-1.9-9.1-1.9-9.7,0-14.9,6.8-14.9,17.2,0,5.5,1.9,9.1,6.8,11.7-4.5,2.9-6.5,4.5-6.5,7.1a4.07,4.07,0,0,0,2.6,3.6,11.35,11.35,0,0,0-5.5,10.4c0,7.8,8.1,10.7,14.6,10.7,9.4,0,22-4.9,22-16.2,0-5.8-3.9-8.7-10.7-8.7-3.6,0-7.4.3-10.4,0.3-3.6,0-5.5-.6-5.5-2.3,0-1.9,1.9-3.9,3.2-3.9,13,0,18.1-8.7,18.1-17.2a12.39,12.39,0,0,0-2.3-7.1l6.2,0.3,2.1-5.3h0Z" transform="translate(-38.9 -321.7)"/><path class="cls-2" d="M257.8,380.6l1-3.2c-5.8-.3-6.5-1.3-6.5-7.4V345c0-1.9.3-3.9,0.3-5.2a40.43,40.43,0,0,1-12,2.9l-1,3.2c4.5,0.3,6.5,1.3,6.5,5.2v21c0,3.6-1.3,4.9-5.2,5.2l-1,3.2h17.9v0.1Zm-5.2-50.2c0-2.3-.3-2.9-1.6-2.9s-5.8,1-5.8,2.6c0,2.3.3,2.9,0.3,4.2a6.89,6.89,0,0,1-.3,2.6c7.4-2.6,7.4-2.6,7.4-6.5h0Z" transform="translate(-38.9 -321.7)"/><path class="cls-2" d="M291.8,367c0,9.4-1.3,9.4-6.2,10.4l-1,3.2h18.5l1-3.2c-4.5-.3-5.8-1.9-5.8-5.5V350.5c0-5.8-4.2-10.7-11.3-10.7-7.8,0-11,3.9-14.9,9.1h0v-9.1a48,48,0,0,1-11.3,3.2l-1,3.2c5.5,0.3,6.2.6,6.2,9.7v11.7c0,8.1-.6,8.4-4.9,9.4l-1,3.2h19.4l1-3.2c-6.5-.6-8.1-1.6-8.1-9.4v-4.2c0-13.6,3.6-18.1,10.4-18.1,5.8,0,8.7,2.6,8.7,10.4V367h0.3Z" transform="translate(-38.9 -321.7)"/><path class="cls-2" d="M323.5,380.6l1-3.2c-5.8-.3-6.5-1.3-6.5-7.4V345c0-1.9.3-3.9,0.3-5.2a40.43,40.43,0,0,1-12,2.9l-1,3.2c4.5,0.3,6.5,1.3,6.5,5.2v21c0,3.6-1.3,4.9-5.2,5.2l-1,3.2h17.9v0.1Zm-5.2-50.2c0-2.3-.3-2.9-1.6-2.9s-5.8,1-5.8,2.6c0,2.3.3,2.9,0.3,4.2a6.89,6.89,0,0,1-.3,2.6c7.4-2.6,7.4-2.6,7.4-6.5h0Z" transform="translate(-38.9 -321.7)"/><path class="cls-2" d="M360.4,377.4c-4.5-.3-5.8-1.6-5.8-4.2v-23c0-7.1-3.2-10.4-12.6-10.4a36.68,36.68,0,0,0-12,1.6l-1.9,5.5a47.75,47.75,0,0,1,12-1.9c5.8,0,8.4,1.9,8.4,5.2v4.5c-7.8,4.9-23,7.1-23,17.5,0,6.2,5.2,9.4,10.7,9.4,6.2,0,9.4-1.9,12.6-6.8h0.3v5.8h10.4l0.9-3.2h0Zm-12.3-10.1a9.26,9.26,0,0,1-9.7,9.4,5.9,5.9,0,0,1-5.8-6.2c0-5.8,7.1-8.1,15.9-12v8.7h-0.4v0.1Z" transform="translate(-38.9 -321.7)"/><path class="cls-2" d="M368.5,380.6H395l1-3.2c-9.1-.3-10.4-2.3-10.4-15.2V340.8c0-5.8.3-9.1,0.3-12,12.6,0,14.6,1.3,15.5,11.3l3.9-1.3V324.9h-46v15.2l3.9-1.3c1-8.7,2.3-10,15.5-10,0.3,2.9.3,6.5,0.3,12v21.4c0,12.6-1.3,14.9-9.4,15.2l-1.1,3.2h0Z" transform="translate(-38.9 -321.7)"/><path class="cls-2" d="M432,374.5c-3.6.6-7.4,1.6-11,1.6-10.4,0-14.9-6.5-14.9-17.2l27.5-.6c0-13-6.8-18.5-15.9-18.5-10.4,0-18.8,8.4-18.8,21,0,13,8.4,20.7,19.8,20.7a47.1,47.1,0,0,0,11.7-1.6l1.6-5.4h0Zm-25.6-19.1c1.6-9.1,4.2-11.3,10-11.3s9.4,4.2,9.4,7.8c0,2.3-1,2.9-5.2,2.9l-14.2.6h0Z" transform="translate(-38.9 -321.7)"/><path class="cls-2" d="M464.3,341.1a21.9,21.9,0,0,0-7.1-1c-12,0-21,7.8-21,21.4,0,13.3,7.4,20.4,20.7,20.4a43.51,43.51,0,0,0,8.4-1l1.6-5.5a40.68,40.68,0,0,1-9.1,1.3c-9.4,0-14.6-5.2-14.6-16.8,0-5.8,1.9-12,4.2-13.6a13.08,13.08,0,0,1,5.8-1,34.63,34.63,0,0,1,12,2.3l-0.9-6.5h0Z" transform="translate(-38.9 -321.7)"/><path class="cls-2" d="M473.4,340.5v27.8c0,7.8-.6,8.1-5.2,9.4l-1,3.2h19.4l1-3.2c-6.2-.6-7.4-1.3-7.4-9.1v-4.2c0-13.3,3.2-17.8,10.4-17.8,5.8,0,8.4,2.6,8.4,10v11c0,9.1-1.3,9.1-6.5,10l-1,3.2h19.1l1-3.2c-5.2-.3-6.2-1.9-6.2-5.2v-21c0-5.8-4.2-10.4-11-10.4-7.4,0-10.7,3.6-13.9,8.1h-0.3v-12c0-8.4.3-13.6,0.3-14.9-2.9,1.3-9.1,2.9-13.6,3.9l-1,3.2c6.2,0.3,7.8.6,7.8,8.7v2.3h-0.3v0.2Z" transform="translate(-38.9 -321.7)"/><path class="cls-2" d="M45,367v11s-0.3,3.6,1.6,5.2,26.2,12,26.2,12S97.1,384.8,99,382.9c1.6-1.6,1.6-4.9,1.6-4.9V367H45Zm10.4,14.3H52.5v-8.1h0l-1.9,1-0.3-2.3,2.9-1.3h2.3v10.7H55.4Zm11,0.3c-2.9,0-4.2-1.6-4.2-2.9a2.88,2.88,0,0,1,1.6-2.6h0a2.68,2.68,0,0,1-1.6-2.3c0-1.9,1.6-2.9,3.9-2.9h0c2.6,0,3.6,1.6,3.6,2.6a3.21,3.21,0,0,1-1.3,2.3h0a2.73,2.73,0,0,1,1.9,2.6C70.6,380.3,69,381.6,66.4,381.6Zm16.8-9.1L79,381.2H75.8l4.2-8.1H75.5v-2.3h7.8v1.7H83.2Zm13,8.8H88.4v-1.6l1.6-1.3c2.3-1.9,3.2-2.9,3.2-3.9a1.48,1.48,0,0,0-1.6-1.3,2.9,2.9,0,0,0-2.3,1l-0.6-1.9a6.16,6.16,0,0,1,3.6-1c2.6,0,3.9,1.3,3.9,3.2,0,1.6-1.3,2.9-2.6,4.2l-1,.6h3.6v2Zm-30.1-4.6a1.38,1.38,0,0,0-1,1.3,1.32,1.32,0,0,0,1.3,1.3h0a1.4,1.4,0,0,0,1.3-1.3A2.78,2.78,0,0,0,66.1,376.7Zm0.3-1.9a1.44,1.44,0,0,0,1-1.3,1.16,1.16,0,0,0-1.3-1.3h0a1.43,1.43,0,0,0-1.3,1A3.45,3.45,0,0,0,66.4,374.8Z" transform="translate(-38.9 -321.7)"/><path class="cls-2" d="M518.7,369a10,10,0,0,1,2.9.6,7.22,7.22,0,0,1,2.3,2.3,5.08,5.08,0,0,1,.6,2.9,10,10,0,0,1-.6,2.9,7.22,7.22,0,0,1-2.3,2.3,4.39,4.39,0,0,1-2.9.6,10,10,0,0,1-2.9-.6,7.22,7.22,0,0,1-2.3-2.3,5.08,5.08,0,0,1-.6-2.9,10,10,0,0,1,.6-2.9,7.22,7.22,0,0,1,2.3-2.3A4.5,4.5,0,0,1,518.7,369Zm0,0.9a5.19,5.19,0,0,0-2.3.6,4.1,4.1,0,0,0-1.6,1.6,6,6,0,0,0-.6,2.3,5.19,5.19,0,0,0,.6,2.3,3.54,3.54,0,0,0,1.6,1.6,6,6,0,0,0,2.3.6,5.19,5.19,0,0,0,2.3-.6,4.1,4.1,0,0,0,1.6-1.6,6,6,0,0,0,.6-2.3,5.19,5.19,0,0,0-.6-2.3,4.1,4.1,0,0,0-1.6-1.6A6.38,6.38,0,0,0,518.7,369.9Zm-2.5,8.1v-6.2h3.2a1.43,1.43,0,0,1,1,.3,1.13,1.13,0,0,1,.6.6c0,0.3.3,0.6,0.3,1a2.08,2.08,0,0,1-.3,1.3,1.61,1.61,0,0,1-1.3.6c0.3,0,.3,0,0.3.3l0.3,0.3a1,1,0,0,1,.3.6l0.6,1.3h-1.6l-0.6-1a3.45,3.45,0,0,0-1-1.3,1.21,1.21,0,0,0-1-.3h-0.3v2.6h-0.6V378h0.1Zm1.2-3.5h1.9c0.3,0,.3,0,0.3-0.3v-0.6l-0.3-.3h-1.9v1.2Z" transform="translate(-38.9 -321.7)"/><path class="cls-2" d="M256.1,419.8l3.6-.3a10.3,10.3,0,0,0,1.3,3.6,6.91,6.91,0,0,0,2.9,2.3,9.63,9.63,0,0,0,4.2,1,12.89,12.89,0,0,0,3.6-.6,4.52,4.52,0,0,0,2.3-1.6,6,6,0,0,0,.6-2.3,5.19,5.19,0,0,0-.6-2.3,5.05,5.05,0,0,0-2.6-1.6c-0.6-.3-2.3-0.6-4.9-1.3s-4.2-1.3-5.5-1.6a6.74,6.74,0,0,1-2.9-2.6,7.19,7.19,0,0,1-1-3.6,6.1,6.1,0,0,1,1.3-3.9,6,6,0,0,1,3.6-2.9,14.58,14.58,0,0,1,5.2-1,14.16,14.16,0,0,1,5.5,1,7.08,7.08,0,0,1,3.6,2.9,6.69,6.69,0,0,1,1.3,4.5l-3.6.3a6.84,6.84,0,0,0-1.9-3.9,9.31,9.31,0,0,0-4.9-1.3c-2.3,0-3.9.3-4.9,1.3a4.29,4.29,0,0,0-1.6,2.9,3.54,3.54,0,0,0,1,2.6c0.6,0.6,2.6,1.3,5.5,1.9s5.2,1.3,6.2,1.6a6.62,6.62,0,0,1,3.6,2.9,10,10,0,0,1,1.3,3.9,6.37,6.37,0,0,1-1.3,4.2,7.42,7.42,0,0,1-3.6,2.9,14.6,14.6,0,0,1-5.5,1,18.5,18.5,0,0,1-6.5-1,7.83,7.83,0,0,1-3.9-3.2A53.56,53.56,0,0,1,256.1,419.8Z" transform="translate(-38.9 -321.7)"/><path class="cls-2" d="M290.5,426l0.6,2.9a8.63,8.63,0,0,1-2.6.3,6.63,6.63,0,0,1-2.9-.6,2.28,2.28,0,0,1-1.3-1.6c-0.3-.6-0.3-1.9-0.3-3.9V411.4h-2.6v-2.6H284v-4.9l3.2-1.9v7.1h3.6v2.6h-3.6v11.7a2.94,2.94,0,0,0,.3,1.9,0.65,0.65,0,0,0,.6.6h0.6A11.48,11.48,0,0,0,290.5,426Z" transform="translate(-38.9 -321.7)"/><path class="cls-2" d="M307,428.9V426a7.46,7.46,0,0,1-6.5,3.6,9.6,9.6,0,0,1-3.2-.6,4.52,4.52,0,0,1-2.3-1.6,3.8,3.8,0,0,1-1-2.6c0-.6-0.3-1.6-0.3-3.2V409h3.6v11.3a10.35,10.35,0,0,0,.3,3.6,4.78,4.78,0,0,0,1.3,2.3c0.7,0.7,1.6.6,2.6,0.6a10,10,0,0,0,2.9-.6,3.88,3.88,0,0,0,1.9-2.3,13.31,13.31,0,0,0,.6-3.9V409.3h3.6v20.1H307v-0.5Z" transform="translate(-38.9 -321.7)"/><path class="cls-2" d="M327.7,428.9v-2.6a6.4,6.4,0,0,1-5.5,2.9,7.2,7.2,0,0,1-4.5-1.3,15.61,15.61,0,0,1-3.2-3.6,16.29,16.29,0,0,1-1-5.5,14.16,14.16,0,0,1,1-5.5,9.53,9.53,0,0,1,2.9-3.9,7.2,7.2,0,0,1,4.5-1.3,9.6,9.6,0,0,1,3.2.6,15.51,15.51,0,0,1,2.3,1.9v-10h3.2v27.8h-2.9v0.5ZM317,418.8a9.33,9.33,0,0,0,1.6,5.8,5,5,0,0,0,7.8,0,9,9,0,0,0,1.6-5.5c0-2.9-.6-4.9-1.6-6.2a5,5,0,0,0-7.8,0C317.3,414.3,317,416.2,317,418.8Z" transform="translate(-38.9 -321.7)"/><path class="cls-2" d="M349.4,422.4l3.6,0.3a10,10,0,0,1-3.2,4.9,8.8,8.8,0,0,1-5.8,1.6,10.65,10.65,0,0,1-7.1-2.6c-1.9-1.6-2.6-4.2-2.6-7.8,0-3.2,1-6.2,2.6-7.8a8.48,8.48,0,0,1,6.8-2.9,9.14,9.14,0,0,1,6.5,2.6,11.8,11.8,0,0,1,2.6,7.8v1H337.9a6.8,6.8,0,0,0,1.9,5.2,5,5,0,0,0,4.2,1.6,4.9,4.9,0,0,0,3.2-1A8.51,8.51,0,0,0,349.4,422.4Zm-11.3-5.5h11.3a6.73,6.73,0,0,0-1.3-3.9,5.22,5.22,0,0,0-4.2-1.9,5.35,5.35,0,0,0-3.9,1.6A4.61,4.61,0,0,0,338.1,416.9Z" transform="translate(-38.9 -321.7)"/><path class="cls-2" d="M356.2,428.9V408.8h2.9v2.9a7.13,7.13,0,0,1,6.5-3.2,9.6,9.6,0,0,1,3.2.6,7.33,7.33,0,0,1,2.3,1.6,3.39,3.39,0,0,1,1,2.6c0,0.6.3,1.6,0.3,3.2v12.3h-3.2V416.5a9.3,9.3,0,0,0-.3-3.2,2.93,2.93,0,0,0-1.3-1.6,6,6,0,0,0-2.3-.6,6.1,6.1,0,0,0-3.9,1.3c-1,1-1.6,2.6-1.6,5.2v11h-3.6v0.3Z" transform="translate(-38.9 -321.7)"/><path class="cls-2" d="M385.3,426l0.6,2.9a8.63,8.63,0,0,1-2.6.3,6.63,6.63,0,0,1-2.9-.6,2.28,2.28,0,0,1-1.3-1.6c0-.6-0.3-1.9-0.3-3.9V411.4h-2.6v-2.6h2.6v-4.9L382,402v7.1h3.6v2.6H382v11.7a2.94,2.94,0,0,0,.3,1.9,1.13,1.13,0,0,0,.6.6,6.3,6.3,0,0,0,1.3.3A1.52,1.52,0,0,1,385.3,426Z" transform="translate(-38.9 -321.7)"/><path class="cls-2" d="M396.3,428.9L407,401h3.9l11.3,27.8H418l-3.2-8.4H403.1l-2.9,8.4h-3.9v0.1Zm8.1-11.4h9.4l-2.9-7.8a27.52,27.52,0,0,1-1.9-5.8,26.36,26.36,0,0,1-1.6,5.2Z" transform="translate(-38.9 -321.7)"/><path class="cls-2" d="M425.8,428.9V411.4h-2.9v-2.6h2.9v-2.3a7.5,7.5,0,0,1,.3-2.9,6.34,6.34,0,0,1,1.6-2.3,6.16,6.16,0,0,1,3.6-1,12.7,12.7,0,0,1,3.2.3l-0.6,2.9c-0.6,0-1.3-.3-1.9-0.3a5.19,5.19,0,0,0-2.3.6c-0.6.3-.6,1.3-0.6,2.6v1.9H433v2.6h-4v17.5h-3.2v0.5Z" transform="translate(-38.9 -321.7)"/><path class="cls-2" d="M438.1,428.9V411.4h-2.9v-2.6h2.9v-2.3a7.5,7.5,0,0,1,.3-2.9,6.34,6.34,0,0,1,1.6-2.3,6.16,6.16,0,0,1,3.6-1,12.7,12.7,0,0,1,3.2.3l-0.6,2.9c-0.6,0-1.3-.3-1.9-0.3a5.19,5.19,0,0,0-2.3.6,4.4,4.4,0,0,0-.6,2.6v1.9h3.9v2.6h-3.9v17.5h-3.2v0.5h-0.1Z" transform="translate(-38.9 -321.7)"/><path class="cls-2" d="M461.1,426.3a17.56,17.56,0,0,1-3.6,2.3,15.2,15.2,0,0,1-3.9.6,8.07,8.07,0,0,1-5.2-1.6,5.22,5.22,0,0,1-1.9-4.2,6.64,6.64,0,0,1,.6-2.6,3.12,3.12,0,0,1,1.6-1.9,3.8,3.8,0,0,1,2.6-1,20,20,0,0,1,2.9-.6c2.9-.3,4.9-0.6,6.2-1.3v-1a3.66,3.66,0,0,0-1-2.9,7.53,7.53,0,0,0-3.9-1.3,5.17,5.17,0,0,0-3.6,1,6.13,6.13,0,0,0-1.6,2.9l-3.2-.3a6.94,6.94,0,0,1,1.6-3.6,4.31,4.31,0,0,1,2.9-1.9,20.41,20.41,0,0,1,4.5-.6,15.64,15.64,0,0,1,4.2.6,4.52,4.52,0,0,1,2.3,1.6,3.08,3.08,0,0,1,1,2.3c0,0.6.3,1.6,0.3,3.2v4.5c0,3.2,0,5.2.3,6.2a2.9,2.9,0,0,0,1,2.3h-3.6C461.4,428.2,461.4,427.2,461.1,426.3Zm-0.3-7.5a20.2,20.2,0,0,1-5.5,1.3,20,20,0,0,0-2.9.6,3.45,3.45,0,0,0-1.3,1,3,3,0,0,0-.3,1.6,2.9,2.9,0,0,0,1,2.3,4,4,0,0,0,2.9,1,6.3,6.3,0,0,0,3.6-1,8.39,8.39,0,0,0,2.3-2.3,9,9,0,0,0,.6-3.6v-1h-0.4v0.1Z" transform="translate(-38.9 -321.7)"/><path class="cls-2" d="M468.9,404.9V401h3.6v3.9h-3.6Zm0,24V408.8h3.6v20.1h-3.6Z" transform="translate(-38.9 -321.7)"/><path class="cls-2" d="M476.6,428.9V408.8h2.9v2.9a8.91,8.91,0,0,1,2.3-2.9,4.84,4.84,0,0,1,2.3-.6,7,7,0,0,1,3.6,1l-1.3,3.2a4.16,4.16,0,0,0-2.6-.6,4.67,4.67,0,0,0-1.9.6,3.09,3.09,0,0,0-1.3,1.9,17.56,17.56,0,0,0-.6,3.9v10.7h-3.4Z" transform="translate(-38.9 -321.7)"/><path class="cls-2" d="M489,422.7l3.2-.6a5.45,5.45,0,0,0,1.6,3.2,6.16,6.16,0,0,0,3.6,1,5.51,5.51,0,0,0,3.6-1,3.37,3.37,0,0,0,1.3-2.3,2.57,2.57,0,0,0-1-1.9,21.52,21.52,0,0,0-3.6-1.3,51,51,0,0,1-5.2-1.6,4.65,4.65,0,0,1-2.3-1.9,4.16,4.16,0,0,1-.6-2.6,8.17,8.17,0,0,1,.6-2.6,9,9,0,0,1,1.6-1.9c0.6-.3,1.3-0.6,2.3-1a9.55,9.55,0,0,1,2.9-.3,17.71,17.71,0,0,1,4.2.6,4.28,4.28,0,0,1,2.6,1.9,7.35,7.35,0,0,1,1.3,3.2l-3.2.3a3.85,3.85,0,0,0-1.3-2.6,4.35,4.35,0,0,0-3.2-1,7.14,7.14,0,0,0-3.2.6,2.42,2.42,0,0,0-1,1.9,2.08,2.08,0,0,0,.3,1.3,5.32,5.32,0,0,0,1.3,1,11.56,11.56,0,0,1,2.9,1c2.3,0.6,4.2,1.3,5.2,1.6a4.65,4.65,0,0,1,2.3,1.9,4,4,0,0,1,1,2.9,4.9,4.9,0,0,1-1,3.2,6.11,6.11,0,0,1-2.9,2.3,9.63,9.63,0,0,1-4.2,1,9.33,9.33,0,0,1-5.8-1.6A8.52,8.52,0,0,1,489,422.7Z" transform="translate(-38.9 -321.7)"/><path class="cls-2" d="M112.7,428.9V408.2h7.1a11.33,11.33,0,0,1,3.6.3c1.3,0.3,2.3.6,2.9,1.6a15.77,15.77,0,0,1,2.6,3.6,12.59,12.59,0,0,1,1,4.9,17,17,0,0,1-.6,4.2,11.55,11.55,0,0,1-1.3,2.9l-1.9,1.9c-0.6.3-1.6,0.6-2.6,1a10.56,10.56,0,0,1-3.2.3h-7.6Zm2.9-2.6h4.2a9.3,9.3,0,0,0,3.2-.3,17.38,17.38,0,0,0,1.9-1,6.75,6.75,0,0,0,1.6-2.6,15.2,15.2,0,0,0,.6-3.9,10.68,10.68,0,0,0-1-5.2,4.44,4.44,0,0,0-2.6-2.3,10.67,10.67,0,0,0-3.6-.3h-4.5v15.6h0.2Z" transform="translate(-38.9 -321.7)"/><path class="cls-2" d="M133.4,411.1v-2.9H136v2.9h-2.6Zm0,17.8V413.7H136v15.2h-2.6Z" transform="translate(-38.9 -321.7)"/><path class="cls-2" d="M144.1,428.9l-5.8-15.2h2.6l3.2,9.1c0.3,1,.6,1.9,1,2.9a22.82,22.82,0,0,0,1-2.9l3.2-9.1h2.9l-5.8,15.2h-2.3Z" transform="translate(-38.9 -321.7)"/><path class="cls-2" d="M154.5,411.1v-2.9h2.6v2.9h-2.6Zm0,17.8V413.7h2.6v15.2h-2.6Z" transform="translate(-38.9 -321.7)"/><path class="cls-2" d="M160,424.3l2.6-.3a2.74,2.74,0,0,0,1.3,2.3,3.8,3.8,0,0,0,2.6,1,5.52,5.52,0,0,0,2.6-.6,1.9,1.9,0,0,0,1-1.6,1.78,1.78,0,0,0-.6-1.3,9.13,9.13,0,0,0-2.6-1,14.28,14.28,0,0,1-3.9-1.3,7.47,7.47,0,0,1-1.6-1.3,4.67,4.67,0,0,1-.6-1.9,4.22,4.22,0,0,1,.3-1.9,2.37,2.37,0,0,1,1.3-1.3,2.58,2.58,0,0,1,1.6-.6,5.13,5.13,0,0,1,2.3-.3,9.6,9.6,0,0,1,3.2.6,2.54,2.54,0,0,1,1.9,1.3c0.3,0.6.6,1.3,1,2.3l-2.6.3a2.57,2.57,0,0,0-1-1.9,4.84,4.84,0,0,0-2.3-.6,5.52,5.52,0,0,0-2.6.6,1.34,1.34,0,0,0-.6,1.3,1.43,1.43,0,0,0,.3,1,1.52,1.52,0,0,0,1,.6c0.4,0,1,.3,2.3.6a19.37,19.37,0,0,1,3.9,1.3,2.93,2.93,0,0,1,1.6,1.3,4.84,4.84,0,0,1,.6,2.3,5.19,5.19,0,0,1-.6,2.3,5.59,5.59,0,0,1-2.3,1.6,10.13,10.13,0,0,1-3.2.6c-1.9,0-3.6-.3-4.5-1.3A6.08,6.08,0,0,1,160,424.3Z" transform="translate(-38.9 -321.7)"/><path class="cls-2" d="M175.5,411.1v-2.9h2.6v2.9h-2.6Zm0,17.8V413.7h2.6v15.2h-2.6Z" transform="translate(-38.9 -321.7)"/><path class="cls-2" d="M181,421.4c0-2.9.6-4.9,2.3-6.2a7.78,7.78,0,0,1,4.9-1.6,7.26,7.26,0,0,1,5.2,1.9,7.52,7.52,0,0,1,1.9,5.5,7.9,7.9,0,0,1-1,4.5,6.49,6.49,0,0,1-2.6,2.6,7.19,7.19,0,0,1-3.6,1,6.8,6.8,0,0,1-5.2-1.9A9.38,9.38,0,0,1,181,421.4Zm2.6,0c0,1.9.3,3.2,1.3,4.2a4,4,0,0,0,3.2,1.3,3.89,3.89,0,0,0,3.2-1.3c1-1,1.3-2.6,1.3-4.5s-0.3-3.2-1.3-4.2a4,4,0,0,0-3.2-1.3,3.89,3.89,0,0,0-3.2,1.3A8,8,0,0,0,183.6,421.4Z" transform="translate(-38.9 -321.7)"/><path class="cls-2" d="M198.2,428.9V413.7h2.3V416a5.44,5.44,0,0,1,4.9-2.6,8.17,8.17,0,0,1,2.6.6,2.93,2.93,0,0,1,1.6,1.3,4.67,4.67,0,0,1,.6,1.9v12h-2.6v-9.7a4.7,4.7,0,0,0-.3-2.3,3.45,3.45,0,0,0-1-1.3,3.63,3.63,0,0,0-1.9-.3,4.85,4.85,0,0,0-2.9,1,5.53,5.53,0,0,0-1.3,3.9v8.1h-1.9v0.3h-0.1Z" transform="translate(-38.9 -321.7)"/><path class="cls-2" d="M221.5,421.4c0-2.9.6-4.9,2.3-6.2a7.78,7.78,0,0,1,4.9-1.6,7.43,7.43,0,0,1,5.2,1.9,7.52,7.52,0,0,1,1.9,5.5,7.9,7.9,0,0,1-1,4.5,6.49,6.49,0,0,1-2.6,2.6,7.19,7.19,0,0,1-3.6,1,6.8,6.8,0,0,1-5.2-1.9A8.81,8.81,0,0,1,221.5,421.4Zm2.6,0c0,1.9.3,3.2,1.3,4.2a4,4,0,0,0,3.2,1.3,3.89,3.89,0,0,0,3.2-1.3c1-1,1.3-2.6,1.3-4.5s-0.3-3.2-1.3-4.2a4,4,0,0,0-3.2-1.3,3.89,3.89,0,0,0-3.2,1.3A8,8,0,0,0,224.1,421.4Z" transform="translate(-38.9 -321.7)"/><path class="cls-2" d="M239.3,428.9V415.6H237v-1.9h2.3V412a5.36,5.36,0,0,1,.3-2.3,2.93,2.93,0,0,1,1.3-1.6,6.23,6.23,0,0,1,2.6-.6,6.34,6.34,0,0,1,2.3.3l-0.3,2.3h-1.6a2.58,2.58,0,0,0-1.6.6,3.1,3.1,0,0,0-.3,1.9v1.3h2.9v1.9H242v13.3h-2.6v-0.2h-0.1Z" transform="translate(-38.9 -321.7)"/><rect id="_Slice_" data-name="&lt;Slice&gt;" class="cls-3" width="485.7" height="110.1"/></g><rect id="_Slice_2" data-name="&lt;Slice&gt;" class="cls-3" x="1.1" y="1.3" width="484" height="110"/><rect id="_Slice_3" data-name="&lt;Slice&gt;" class="cls-3" y="1.3" width="486.1" height="111"/></svg>